<?xml version="1.0" encoding="UTF-8"?>
<svg xmlns="http://www.w3.org/2000/svg" viewBox="0 0 373.93 437.04">
  <defs>
    <style>
      .cls-1 {
        fill: #2563eb;
      }

      .cls-2 {
        fill: #1d4ed8;
      }
    </style>
  </defs>
  <g>
    <path class="cls-1" d="M337.32,36.79c48.82,48.82,48.82,127.96,0,176.78l-88.39,88.39L10.99,64.01C3.89,56.92.24,47.69,0,38.4v-.9c0-9.6,3.66-19.19,10.98-26.52S27.94-.01,37.54,0h.88l209.84.18h.78c31.95.02,63.9,12.23,88.28,36.61Z"/>
    <path class="cls-2" d="M99.73,152.76l220.26,220.26c14.64,14.64,14.64,38.39,0,53.03-11.82,11.82-29.54,14.1-43.65,6.85l-.3-.16L20.89,301.64l-.52-.26c-3.38-1.74-6.55-4.02-9.38-6.85C3.66,287.21,0,277.61,0,268.01v-.9c.24-9.3,3.89-18.52,10.99-25.62l88.74-88.74Z"/>
  </g>
</svg>